<?xml version="1.0" encoding="UTF-8"?>
<svg version="1.1" xmlns="http://www.w3.org/2000/svg" width="1081" height="202">
<path d="M0 0 C14.85 0 29.7 0 45 0 C46 5 46 5 45 7 C36.34543428 8.98975655 26.79207851 8.03462936 17.98828125 7.87304688 C9.11311182 7.78780513 0.53607441 7.81894884 -7 13 C-7.66 13 -8.32 13 -9 13 C-9 13.66 -9 14.32 -9 15 C-9.556875 15.185625 -10.11375 15.37125 -10.6875 15.5625 C-17.11139735 19.55573349 -18.74740443 25.74048931 -20.3934021 32.68634033 C-21.37314994 38.03840452 -21.40883831 43.28349552 -21.36328125 48.7109375 C-21.36377975 49.88153717 -21.36427826 51.05213684 -21.36479187 52.25820923 C-21.36246718 54.71707876 -21.35283458 57.17595139 -21.33618164 59.63476562 C-21.31260577 63.35829415 -21.31563216 67.08110322 -21.32226562 70.8046875 C-22.36341629 93.62362656 -22.36341629 93.62362656 -13.625 113.75 C-11.10003298 115.91425744 -9.14682146 117.01099897 -6 118 C-6 118.66 -6 119.32 -6 120 C2.88090214 122.61806942 11.7779731 122.18936838 20.9375 122.0625 C23.35298315 122.03484639 25.7684071 122.01018633 28.18397522 121.99131775 C29.67869026 121.97908836 31.17337329 121.96151179 32.66795349 121.93800354 C37.77663824 121.88831912 37.77663824 121.88831912 40 123 C39.89256172 115.34180778 39.77994121 107.68370677 39.66066074 100.02569008 C39.60544085 96.46995791 39.55202237 92.91421749 39.50268555 89.35839844 C39.44591832 85.27269398 39.38137946 81.18714475 39.31640625 77.1015625 C39.29969376 75.82133209 39.28298126 74.54110168 39.26576233 73.22207642 C39.2358445 71.45046646 39.2358445 71.45046646 39.20532227 69.64306641 C39.18977798 68.59937897 39.1742337 67.55569153 39.15821838 66.4803772 C39.16152796 63.99858218 39.16152796 63.99858218 38 62 C37.04738281 62.10699219 36.09476563 62.21398437 35.11328125 62.32421875 C33.85902344 62.44410156 32.60476563 62.56398437 31.3125 62.6875 C30.07113281 62.81511719 28.82976563 62.94273438 27.55078125 63.07421875 C23.66560873 62.99301052 21.92707506 62.53530593 19 60 C19 58.68 19 57.36 19 56 C22.65074218 54.31415688 25.29624166 53.7892539 29.30078125 54.0234375 C30.27724609 54.075 31.25371094 54.1265625 32.25976562 54.1796875 C33.77086914 54.27636719 33.77086914 54.27636719 35.3125 54.375 C36.33923828 54.43171875 37.36597656 54.4884375 38.42382812 54.546875 C40.94997226 54.68786909 43.47505001 54.83923182 46 55 C46.02312465 64.63112712 46.04091571 74.26224474 46.05181217 83.89339352 C46.05704074 88.36505549 46.06413789 92.83669853 46.07543945 97.30834961 C46.08626929 101.62011973 46.09227704 105.93187159 46.09487724 110.24365425 C46.09673132 111.89236298 46.1003516 113.54107066 46.10573006 115.18977165 C46.11294178 117.49103872 46.11399089 119.7922294 46.11352539 122.09350586 C46.115746 123.4058873 46.11796661 124.71826874 46.12025452 126.07041931 C46 129 46 129 45 130 C42.07541289 130.10133572 39.1749807 130.13966984 36.25 130.1328125 C35.36272217 130.13376923 34.47544434 130.13472595 33.5612793 130.13571167 C31.67480397 130.1363941 29.78832632 130.13453549 27.90185547 130.13037109 C25.03998378 130.12507401 22.17827269 130.13028759 19.31640625 130.13671875 C17.48177049 130.13605699 15.64713483 130.13477382 13.8125 130.1328125 C12.54164551 130.13584885 12.54164551 130.13584885 11.24511719 130.13894653 C5.75817883 130.11777528 0.44454663 129.68877619 -5 129 C-5 128.34 -5 127.68 -5 127 C-6.36125 126.814375 -6.36125 126.814375 -7.75 126.625 C-12.64210526 125.68421053 -12.64210526 125.68421053 -15 124 C-16.25 121.375 -16.25 121.375 -17 119 C-17.66 119 -18.32 119 -19 119 C-19 118.34 -19 117.68 -19 117 C-19.99 117 -20.98 117 -22 117 C-22.103125 116.401875 -22.20625 115.80375 -22.3125 115.1875 C-22.81907574 112.94783023 -22.81907574 112.94783023 -24.43878174 111.65628052 C-30.98223979 104.71439266 -29.40717282 91.88072307 -29.328125 83.0078125 C-29.32505943 81.48851713 -29.32318939 79.96921893 -29.32244873 78.44992065 C-29.31787879 75.28811646 -29.30357573 72.12657167 -29.28125 68.96484375 C-29.25282436 64.91991588 -29.24201983 60.8751899 -29.2375679 56.83017159 C-29.23240933 52.95185954 -29.2178846 49.07359764 -29.203125 45.1953125 C-29.20124428 44.46127323 -29.19936356 43.72723396 -29.19742584 42.97095108 C-29.19052861 40.88958211 -29.1768838 38.80836931 -29.16113281 36.72705078 C-29.15430481 35.5455545 -29.14747681 34.36405823 -29.14044189 33.14675903 C-28.9770678 29.48617828 -28.64700966 26.29401932 -27 23 C-26.34 23 -25.68 23 -25 23 C-25.33 22.01 -25.66 21.02 -26 20 C-25.236875 19.2575 -24.47375 18.515 -23.6875 17.75 C-21.00036415 15.00037262 -18.71995578 12.43991155 -17 9 C-15.34928604 7.97388051 -13.68029994 6.97691857 -12 6 C-11.401875 5.46375 -10.80375 4.9275 -10.1875 4.375 C-6.90535345 2.31193646 -3.84257727 2.32021477 0 2 C0 1.34 0 0.68 0 0 Z M20 57 C21 59 21 59 21 59 Z " fill="#020202" transform="translate(533,38)"/>
<path d="M0 0 C1.98 0.66 3.96 1.32 6 2 C6.02333758 18.39381613 6.04098341 34.78762689 6.05181217 51.18145561 C6.0569733 58.79301381 6.06401252 66.4045617 6.07543945 74.01611328 C6.08539187 80.64863248 6.09185476 87.28114421 6.09408849 93.91367066 C6.09539465 97.42707437 6.09847452 100.94045673 6.10573006 104.45385361 C6.11375498 108.37142087 6.11399078 112.28896704 6.11352539 116.20654297 C6.11712067 117.37754547 6.12071594 118.54854797 6.12442017 119.7550354 C6.1230455 120.81796814 6.12167084 121.88090088 6.12025452 122.9760437 C6.12117631 123.90336744 6.1220981 124.83069118 6.12304783 125.78611565 C6 128 6 128 5 130 C-0.22864743 130.07476069 -5.45697628 130.12888763 -10.68603516 130.16479492 C-12.46082996 130.17978093 -14.23558837 130.20017682 -16.01025391 130.22631836 C-40.18251257 130.57319095 -40.18251257 130.57319095 -48 123 C-51.38978244 119.61021756 -54.25752466 115.82608972 -55 111 C-55.66 111 -56.32 111 -57 111 C-57 110.34 -57 109.68 -57 109 C-56.34 109 -55.68 109 -55 109 C-55 108.34 -55 107.68 -55 107 C-55.66 106.67 -56.32 106.34 -57 106 C-57 92.47 -57 78.94 -57 65 C-56.34 65 -55.68 65 -55 65 C-55.30357422 64.13375 -55.30357422 64.13375 -55.61328125 63.25 C-56.09265315 60.46092711 -55.54012901 59.4471592 -54.1875 57 C-53.83042969 56.34 -53.47335937 55.68 -53.10546875 55 C-52.74066406 54.34 -52.37585938 53.68 -52 53 C-51.66226562 52.30261719 -51.32453125 51.60523438 -50.9765625 50.88671875 C-49.67137682 48.36510001 -48.18467236 46.8101571 -46 45 C-44.34385343 44.61781233 -42.67542976 44.28604898 -41 44 C-40.2575 43.46375 -39.515 42.9275 -38.75 42.375 C-34.72873508 40.36436754 -31.31670113 41.21942006 -27 42 C-27 41.34 -27 40.68 -27 40 C-19.08 40 -11.16 40 -3 40 C-3 40.66 -3 41.32 -3 42 C-2.34 42 -1.68 42 -1 42 C-1.24230347 40.49409302 -1.24230347 40.49409302 -1.48950195 38.95776367 C-2.24162659 33.12672946 -2.18598061 27.31540597 -2.18530273 21.44702148 C-2.18750506 19.30758214 -2.20575077 17.16864639 -2.22460938 15.02929688 C-2.22754115 13.66146008 -2.22952739 12.29362086 -2.23046875 10.92578125 C-2.23457764 9.69255127 -2.23868652 8.45932129 -2.24291992 7.1887207 C-2.01398816 4.18361744 -1.58379376 2.51829878 0 0 Z M-44.5 54.25 C-48.26104551 61.1452501 -49.44883659 66.76028246 -49.36328125 74.50390625 C-49.36377975 75.3860228 -49.36427826 76.26813934 -49.36479187 77.17698669 C-49.36246511 79.0300422 -49.35281987 80.88310171 -49.33618164 82.73608398 C-49.31253712 85.55806983 -49.31563819 88.37911166 -49.32226562 91.20117188 C-49.31668927 93.01042225 -49.30957967 94.81966868 -49.30078125 96.62890625 C-49.30169266 97.46450577 -49.30260406 98.30010529 -49.30354309 99.161026 C-49.22272536 107.80385593 -49.22272536 107.80385593 -45 115 C-44.319375 115.804375 -43.63875 116.60875 -42.9375 117.4375 C-35.10464745 124.27041393 -25.26930963 123.37221674 -15.4375 123.1875 C-14.03321753 123.17242111 -12.62891934 123.15873839 -11.22460938 123.14648438 C-7.81599885 123.11134406 -4.4082073 123.06214123 -1 123 C-1.99 122.01 -1.99 122.01 -3 121 C-2.34 120.67 -1.68 120.34 -1 120 C-1 96.57 -1 73.14 -1 49 C-23.7972303 46.06692812 -23.7972303 46.06692812 -44.5 54.25 Z " fill="#030303" transform="translate(331,38)"/>
<path d="M0 0 C0.96486328 -0.00128906 1.92972656 -0.00257812 2.92382812 -0.00390625 C4.43299805 0.00189453 4.43299805 0.00189453 5.97265625 0.0078125 C7.47602539 0.00201172 7.47602539 0.00201172 9.00976562 -0.00390625 C9.97591797 -0.00261719 10.94207031 -0.00132813 11.9375 0 C12.81913818 0.00112793 13.70077637 0.00225586 14.60913086 0.00341797 C16.91994015 0.12666733 18.8540033 0.361485 21.03515625 1.1328125 C21.53015625 2.1228125 21.53015625 2.1228125 22.03515625 3.1328125 C24.3637049 3.49807503 26.69814587 3.82631934 29.03515625 4.1328125 C33.19693397 5.38919823 36.41901541 6.72205194 40.03515625 9.1328125 C40.03515625 9.7928125 40.03515625 10.4528125 40.03515625 11.1328125 C41.02515625 11.6278125 41.02515625 11.6278125 42.03515625 12.1328125 C35.91358091 16.29548373 35.91358091 16.29548373 31.66015625 15.5078125 C29.03515625 14.1328125 29.03515625 14.1328125 28.03515625 12.1328125 C26.71515625 12.4628125 25.39515625 12.7928125 24.03515625 13.1328125 C24.03515625 12.4728125 24.03515625 11.8128125 24.03515625 11.1328125 C23.42929688 11.08382812 22.8234375 11.03484375 22.19921875 10.984375 C17.6988044 10.58279957 13.42558174 10.02549655 9.03515625 8.9453125 C2.58943545 7.58511315 -3.19375842 8.63180794 -8.96484375 11.7578125 C-9.62484375 12.2115625 -10.28484375 12.6653125 -10.96484375 13.1328125 C-11.62484375 13.1328125 -12.28484375 13.1328125 -12.96484375 13.1328125 C-12.96484375 14.1228125 -12.96484375 15.1128125 -12.96484375 16.1328125 C-13.95484375 16.1328125 -14.94484375 16.1328125 -15.96484375 16.1328125 C-19.63326486 24.75437603 -20.44433525 32.91598031 -18.96484375 42.1328125 C-18.30484375 42.1328125 -17.64484375 42.1328125 -16.96484375 42.1328125 C-15.40032672 44.47958804 -14.11244805 46.77856218 -13.02734375 49.3828125 C-12.12972062 51.31414266 -12.12972062 51.31414266 -10.13061523 51.63110352 C-9.05855835 51.87944946 -9.05855835 51.87944946 -7.96484375 52.1328125 C-6.70964404 52.68851806 -5.47105878 53.28297968 -4.25 53.91015625 C-3.56357422 54.25884766 -2.87714844 54.60753906 -2.16992188 54.96679688 C-1.1093457 55.51303711 -1.1093457 55.51303711 -0.02734375 56.0703125 C5.24238933 58.77038655 10.4049086 61.25606328 16.03515625 63.1328125 C17.02515625 64.1228125 17.02515625 64.1228125 18.03515625 65.1328125 C19.87411476 66.05946398 21.73124642 66.95027471 23.59765625 67.8203125 C29.37237186 70.64874464 34.1152272 74.03617803 39.03515625 78.1328125 C39.73253906 78.61492187 40.42992188 79.09703125 41.1484375 79.59375 C46.03604844 83.58074526 47.25886664 90.13328582 47.91015625 96.1328125 C48.38470007 105.733199 46.33900923 112.75137781 40.03515625 120.1328125 C32.68609004 127.26085417 25.66194473 130.25353664 15.47265625 130.3828125 C8.26370075 130.19796749 1.87577346 129.57589007 -4.96484375 127.1328125 C-5.62484375 127.1328125 -6.28484375 127.1328125 -6.96484375 127.1328125 C-6.96484375 126.4728125 -6.96484375 125.8128125 -6.96484375 125.1328125 C-8.10953125 124.91625 -8.10953125 124.91625 -9.27734375 124.6953125 C-11.96484375 124.1328125 -11.96484375 124.1328125 -14.96484375 123.1328125 C-14.96484375 122.4728125 -14.96484375 121.8128125 -14.96484375 121.1328125 C-16.94484375 120.8028125 -18.92484375 120.4728125 -20.96484375 120.1328125 C-20.96484375 119.4728125 -20.96484375 118.8128125 -20.96484375 118.1328125 C-21.74859375 118.0709375 -22.53234375 118.0090625 -23.33984375 117.9453125 C-24.20609375 117.6771875 -25.07234375 117.4090625 -25.96484375 117.1328125 C-27.27734375 114.5703125 -27.27734375 114.5703125 -27.96484375 112.1328125 C-24.67119195 109.93704463 -23.77499791 109.76994068 -19.96484375 110.1328125 C-17.33984375 111.0703125 -17.33984375 111.0703125 -14.96484375 112.1328125 C-13.97484375 112.4628125 -12.98484375 112.7928125 -11.96484375 113.1328125 C-11.96484375 113.7928125 -11.96484375 114.4528125 -11.96484375 115.1328125 C-10.10859375 115.3184375 -10.10859375 115.3184375 -8.21484375 115.5078125 C-5.01314441 115.91082361 -2.79142717 116.54285932 0.03515625 118.1328125 C10.00590457 122.43054884 19.47303997 123.1083016 30.03515625 120.1328125 C30.36515625 119.4728125 30.69515625 118.8128125 31.03515625 118.1328125 C31.55078125 117.6378125 32.06640625 117.1428125 32.59765625 116.6328125 C34.26579137 115.23841581 34.26579137 115.23841581 34.03515625 113.1328125 C35.01269269 112.11084258 36.01574435 111.11301625 37.03515625 110.1328125 C38.02515625 108.6478125 38.02515625 108.6478125 39.03515625 107.1328125 C38.70515625 106.4728125 38.37515625 105.8128125 38.03515625 105.1328125 C38.69515625 105.1328125 39.35515625 105.1328125 40.03515625 105.1328125 C40.57273295 96.66597943 38.72041527 91.16070103 34.03515625 84.1328125 C31.89660775 81.994264 30.90240311 81.70626187 28.03515625 81.1328125 C27.37515625 80.1428125 26.71515625 79.1528125 26.03515625 78.1328125 C23.48332221 76.92830946 23.48332221 76.92830946 21.03515625 76.1328125 C21.03515625 75.4728125 21.03515625 74.8128125 21.03515625 74.1328125 C18.06515625 73.6378125 18.06515625 73.6378125 15.03515625 73.1328125 C15.03515625 72.4728125 15.03515625 71.8128125 15.03515625 71.1328125 C11.98602397 70.12170157 11.98602397 70.12170157 9.03515625 71.1328125 C8.70515625 70.4728125 8.37515625 69.8128125 8.03515625 69.1328125 C7.37515625 69.1328125 6.71515625 69.1328125 6.03515625 69.1328125 C5.04515625 68.1428125 5.04515625 68.1428125 4.03515625 67.1328125 C2.30383123 66.30109754 0.55034387 65.51501047 -1.21484375 64.7578125 C-5.48643493 62.86802478 -9.15180181 60.80194186 -12.96484375 58.1328125 C-13.95484375 57.8028125 -14.94484375 57.4728125 -15.96484375 57.1328125 C-17.7890625 55.13671875 -17.7890625 55.13671875 -19.65234375 52.6953125 C-20.58626953 51.49068359 -20.58626953 51.49068359 -21.5390625 50.26171875 C-22.96484375 48.1328125 -22.96484375 48.1328125 -22.96484375 46.1328125 C-23.62484375 46.1328125 -24.28484375 46.1328125 -24.96484375 46.1328125 C-27.85174604 40.50147842 -28.34654298 36.33613455 -27.90234375 30.0703125 C-27.87462891 29.29365234 -27.84691406 28.51699219 -27.81835938 27.71679688 C-27.50059566 22.43117798 -26.26071387 19.42247552 -22.96484375 15.1328125 C-22.40796875 13.9571875 -21.85109375 12.7815625 -21.27734375 11.5703125 C-18.79628951 7.08647953 -14.57089577 5.06237483 -9.96484375 3.1328125 C-9.30484375 3.1328125 -8.64484375 3.1328125 -7.96484375 3.1328125 C-7.96484375 2.4728125 -7.96484375 1.8128125 -7.96484375 1.1328125 C-5.0150243 0.14953935 -3.07504867 0.00393912 0 0 Z " fill="#020202" transform="translate(58.96484375,37.8671875)"/>
<path d="M0 0 C1.24652344 0.03158203 2.49304688 0.06316406 3.77734375 0.09570312 C10.86174397 0.35379373 16.83461873 1.00250677 23.375 3.8125 C23.87 4.8025 23.87 4.8025 24.375 5.8125 C25.69907669 6.49736725 27.03409241 7.16120203 28.375 7.8125 C33.53666778 10.55463601 35.25664505 16.2337077 36.91891479 21.55305481 C37.50878576 24.47527439 37.50231856 27.23552917 37.50439453 30.2175293 C37.50754669 31.51534836 37.51069885 32.81316742 37.51394653 34.15031433 C37.51215715 35.56244948 37.5101063 36.97458433 37.5078125 38.38671875 C37.50848619 39.83592241 37.50945675 41.28512595 37.51071167 42.73432922 C37.51218419 45.76633789 37.51004747 48.79831704 37.50537109 51.83032227 C37.49965877 55.72449673 37.50296509 59.6186025 37.50894356 63.51277447 C37.51254819 66.50237043 37.51141131 69.49194996 37.50881577 72.4815464 C37.50814701 73.91812969 37.50897312 75.35471444 37.51129532 76.79129601 C37.51382184 78.7927485 37.50929136 80.7942062 37.50439453 82.7956543 C37.50359894 83.93608688 37.50280334 85.07651947 37.50198364 86.25151062 C37.375 88.8125 37.375 88.8125 36.375 89.8125 C33.52314067 89.93865464 30.69690772 90.00121649 27.84375 90.015625 C26.97866821 90.02132507 26.11358643 90.02702515 25.22229004 90.03289795 C23.38290638 90.04236908 21.54350559 90.04889027 19.70410156 90.05273438 C16.91440143 90.06236399 14.12546209 90.09333459 11.3359375 90.125 C9.54687936 90.13153761 7.75781596 90.13678509 5.96875 90.140625 C5.14338745 90.1529718 4.3180249 90.1653186 3.46765137 90.17803955 C-2.39911852 90.15594612 -7.17362189 88.92322307 -12.625 86.8125 C-14.23375 86.255625 -14.23375 86.255625 -15.875 85.6875 C-20.72268757 82.38225848 -22.97195576 77.76392072 -24.2265625 72.09375 C-25.17066775 64.27743674 -24.60877859 56.22021533 -19.625 49.8125 C-10.71352751 41.4822105 -1.25113591 41.59959723 10.453125 41.93359375 C12.84406825 42.03158323 15.23471425 42.13710377 17.625 42.25 C18.85863281 42.30220703 20.09226562 42.35441406 21.36328125 42.40820312 C24.36754553 42.53629191 27.37133492 42.67116237 30.375 42.8125 C30.51460919 27.96428312 30.51460919 27.96428312 24.375 14.8125 C21.74028475 12.47919201 20.96736221 11.8125 17.375 11.8125 C16.715 11.1525 16.055 10.4925 15.375 9.8125 C7.37596333 8.6299367 -0.81449986 8.71403616 -8.8828125 8.875 C-11.32827682 8.81926292 -13.2981695 8.52502226 -15.625 7.8125 C-15.955 5.8325 -16.285 3.8525 -16.625 1.8125 C-11.61121916 -1.53002056 -5.86638238 -0.23525087 0 0 Z M-15.0625 55.5 C-17.69188321 61.07429241 -18.3622331 66.82869708 -16.625 72.8125 C-15.965 72.8125 -15.305 72.8125 -14.625 72.8125 C-14.625 74.1325 -14.625 75.4525 -14.625 76.8125 C-9.19628777 82.08610616 -4.09433063 83.11695822 3.265625 83.04296875 C4.38345367 83.04228142 4.38345367 83.04228142 5.52386475 83.0415802 C7.09047041 83.03857121 8.65707345 83.03072564 10.22363281 83.01831055 C12.63096601 82.99995451 15.03791633 82.99780172 17.4453125 82.99804688 C18.96875335 82.99313494 20.49219158 82.98730804 22.015625 82.98046875 C22.73848694 82.97935593 23.46134888 82.9782431 24.20611572 82.97709656 C27.57677476 83.24015305 27.57677476 83.24015305 30.375 81.8125 C30.46343793 79.36419574 30.49028752 76.94429401 30.47265625 74.49609375 C30.4712413 73.76503922 30.46982635 73.03398468 30.46836853 72.28077698 C30.46275408 69.93714368 30.45019922 67.59360461 30.4375 65.25 C30.43248686 63.66471492 30.42792363 62.07942834 30.42382812 60.49414062 C30.41277997 56.6002239 30.39550572 52.70637795 30.375 48.8125 C25.53700639 48.71298431 20.69961975 48.64072963 15.86083984 48.59277344 C14.2178305 48.57276429 12.57489141 48.54554787 10.93212891 48.51074219 C8.55874212 48.46174695 6.18630351 48.43942496 3.8125 48.421875 C3.08820801 48.40122986 2.36391602 48.38058472 1.61767578 48.35931396 C-5.13589029 48.3563996 -10.49233411 50.46109915 -15.0625 55.5 Z " fill="#030303" transform="translate(947.625,78.1875)"/>
<path d="M0 0 C1.28825684 0.01047363 2.57651367 0.02094727 3.90380859 0.03173828 C4.93167984 0.03598312 4.93167984 0.03598312 5.98031616 0.04031372 C8.17113636 0.05151797 10.36154925 0.07662219 12.55224609 0.10205078 C14.03661519 0.1120803 15.5209907 0.1212062 17.00537109 0.12939453 C20.6461287 0.15145784 24.28664766 0.18598903 27.92724609 0.22705078 C27.92724609 0.88705078 27.92724609 1.54705078 27.92724609 2.22705078 C28.91724609 1.89705078 29.90724609 1.56705078 30.92724609 1.22705078 C33.29247167 2.14908787 35.63126416 3.14404044 37.92724609 4.22705078 C37.92724609 4.88705078 37.92724609 5.54705078 37.92724609 6.22705078 C38.52021484 6.48486328 39.11318359 6.74267578 39.72412109 7.00830078 C42.10385574 8.32474974 43.43703401 9.6528586 45.17724609 11.72705078 C45.69802734 12.33548828 46.21880859 12.94392578 46.75537109 13.57080078 C47.92724609 15.22705078 47.92724609 15.22705078 47.92724609 17.22705078 C48.58724609 17.55705078 49.24724609 17.88705078 49.92724609 18.22705078 C49.95037154 27.33664243 49.96816221 36.44622404 49.97905827 45.55583858 C49.98428665 49.78536449 49.99138349 54.01487038 50.00268555 58.24438477 C50.01351601 62.32273621 50.01952326 66.40106835 50.02212334 70.47943306 C50.0239773 72.03882718 50.02759737 73.59822018 50.03297615 75.15760612 C50.04018871 77.3343424 50.04123695 79.51099793 50.04077148 81.68774414 C50.0429921 82.92906601 50.04521271 84.17038788 50.04750061 85.44932556 C49.92724609 88.22705078 49.92724609 88.22705078 48.92724609 89.22705078 C46.13639873 89.3407173 43.37128998 89.39124389 40.57958984 89.39501953 C39.73433243 89.39834793 38.88907501 89.40167633 38.01820374 89.40510559 C36.22169541 89.41018179 34.4251776 89.4125137 32.62866211 89.41235352 C29.90055328 89.41452232 27.17286045 89.43262102 24.44482422 89.45166016 C22.69808081 89.45459761 20.95133547 89.45658005 19.20458984 89.45751953 C18.39593979 89.46470505 17.58728973 89.47189056 16.75413513 89.47929382 C9.50483933 89.45058849 1.96916543 88.46924947 -4.07275391 84.22705078 C-8.3845555 78.76602934 -12.07275391 73.37291422 -12.07275391 66.22705078 C-12.08177734 65.54255859 -12.09080078 64.85806641 -12.10009766 64.15283203 C-11.83473981 57.54196054 -9.07202487 52.41580046 -5.07275391 47.22705078 C3.96403194 39.73047668 15.50511882 40.85662085 26.55224609 41.03955078 C28.14468132 41.05462882 29.73713039 41.06831169 31.32958984 41.08056641 C35.1958228 41.11331629 39.06137819 41.16492417 42.92724609 41.22705078 C43.00897545 38.70554868 43.06807982 36.18675161 43.11474609 33.66455078 C43.13988281 32.96007812 43.16501953 32.25560547 43.19091797 31.52978516 C43.26909798 25.87476459 42.32795891 21.06425683 38.55224609 16.60205078 C38.01599609 16.14830078 37.47974609 15.69455078 36.92724609 15.22705078 C36.28787109 14.38142578 35.64849609 13.53580078 34.98974609 12.66455078 C25.47615046 5.09250528 8.38213202 8.03778602 -3.07275391 8.22705078 C-4.09730965 6.1779393 -4.71919955 4.48979866 -5.07275391 2.22705078 C-3.07275391 0.22705078 -3.07275391 0.22705078 0 0 Z M-3.07275391 56.22705078 C-4.97943954 61.62932675 -4.70521925 68.58219572 -3.38525391 74.10205078 C-0.81361058 78.26566379 1.94856195 79.93419877 6.60693359 81.328125 C10.71732478 82.29452562 14.71662589 82.48651261 18.92724609 82.42236328 C19.88824219 82.41934204 19.88824219 82.41934204 20.86865234 82.41625977 C23.22159162 82.40593496 25.57442742 82.3780145 27.92724609 82.35205078 C33.20724609 82.31080078 38.48724609 82.26955078 43.92724609 82.22705078 C43.92724609 71.00705078 43.92724609 59.78705078 43.92724609 48.22705078 C39.08821995 48.13478121 34.25229375 48.05528465 29.41308594 48.00732422 C27.77007659 47.98731507 26.1271375 47.96009865 24.484375 47.92529297 C22.11098821 47.87629773 19.7385496 47.85397574 17.36474609 47.83642578 C16.6404541 47.81578064 15.91616211 47.7951355 15.16992188 47.77386475 C8.09255373 47.77081065 1.30276275 50.45136879 -3.07275391 56.22705078 Z " fill="#030303" transform="translate(678.07275390625,78.77294921875)"/>
<path d="M0 0 C1.48831242 0.00667405 2.97660807 0.01863442 4.46484375 0.03515625 C5.22345703 0.03966797 5.98207031 0.04417969 6.76367188 0.04882812 C8.64326246 0.06064945 10.52281274 0.07858547 12.40234375 0.09765625 C12.40234375 0.75765625 12.40234375 1.41765625 12.40234375 2.09765625 C14.38234375 2.09765625 16.36234375 2.09765625 18.40234375 2.09765625 C18.40234375 2.75765625 18.40234375 3.41765625 18.40234375 4.09765625 C20.38234375 4.42765625 22.36234375 4.75765625 24.40234375 5.09765625 C24.89734375 6.58265625 24.89734375 6.58265625 25.40234375 8.09765625 C26.33046875 8.75765625 27.25859375 9.41765625 28.21484375 10.09765625 C33.24437361 14.27415019 35.01242325 20.03608556 35.6277771 26.44586182 C35.93596614 32.09525805 35.92857925 37.74074569 35.86889648 43.39672852 C35.83974271 46.42063603 35.84835593 49.44280669 35.86132812 52.46679688 C35.85509502 54.40235222 35.84670743 56.33790208 35.8359375 58.2734375 C35.83887314 59.17040848 35.84180878 60.06737946 35.84483337 60.99153137 C35.72236256 69.14991582 32.79885107 74.39237553 27.33984375 80.34765625 C25.40234375 82.09765625 25.40234375 82.09765625 23.40234375 82.09765625 C23.40234375 82.75765625 23.40234375 83.41765625 23.40234375 84.09765625 C13.24698507 89.51552751 3.73544594 90.2470377 -7.59765625 88.09765625 C-9.72265625 86.84765625 -9.72265625 86.84765625 -11.59765625 85.09765625 C-12.58765625 84.29328125 -13.57765625 83.48890625 -14.59765625 82.66015625 C-17.06424257 80.55328044 -19.43309572 78.51197376 -21.59765625 76.09765625 C-21.59765625 75.43765625 -21.59765625 74.77765625 -21.59765625 74.09765625 C-22.06848633 73.65873047 -22.53931641 73.21980469 -23.02441406 72.76757812 C-28.5445687 66.90819611 -26.90502997 54.05082245 -26.85839844 46.62744141 C-26.84767015 44.60028183 -26.85835989 42.57400802 -26.87109375 40.546875 C-26.8314167 20.3314167 -26.8314167 20.3314167 -22.59765625 16.09765625 C-21.79083507 14.98347462 -21.00051839 13.85724498 -20.22265625 12.72265625 C-16.25553769 7.18474219 -12.83477799 4.52239857 -6.5234375 1.9296875 C-2.19497577 0.05958132 -2.19497577 0.05958132 0 0 Z M-7.59765625 10.09765625 C-7.59765625 10.75765625 -7.59765625 11.41765625 -7.59765625 12.09765625 C-8.20351563 12.19691406 -8.809375 12.29617187 -9.43359375 12.3984375 C-12.02945915 13.23717379 -12.70049079 14.0608306 -14.22265625 16.28515625 C-14.62742187 16.85621094 -15.0321875 17.42726563 -15.44921875 18.015625 C-18.32038675 23.22083773 -18.89682022 28.17151285 -18.86328125 34.0234375 C-18.8651947 34.77046432 -18.86710815 35.51749115 -18.86907959 36.28715515 C-18.87043464 37.86128071 -18.86678592 39.43541769 -18.85839844 41.00952148 C-18.84773446 43.39267718 -18.85829312 45.77507132 -18.87109375 48.15820312 C-19.1283809 63.52371991 -19.1283809 63.52371991 -11.640625 76.3671875 C-5.76399881 81.34490337 0.19832563 82.71827913 7.80859375 82.4296875 C11.53070966 81.95321182 14.1359746 80.9438649 17.40234375 79.09765625 C17.73234375 78.43765625 18.06234375 77.77765625 18.40234375 77.09765625 C19.06234375 77.09765625 19.72234375 77.09765625 20.40234375 77.09765625 C20.40234375 76.43765625 20.40234375 75.77765625 20.40234375 75.09765625 C21.39234375 74.76765625 22.38234375 74.43765625 23.40234375 74.09765625 C27.52357785 67.6035904 29.71341961 62.27828952 29.703125 54.48828125 C29.70955269 53.39891266 29.70955269 53.39891266 29.71611023 52.28753662 C29.72183532 50.75452716 29.72236724 49.22149054 29.71801758 47.68847656 C29.71487222 45.368656 29.73828671 43.05013057 29.76367188 40.73046875 C29.99701885 27.95581719 29.99701885 27.95581719 24.46484375 16.78515625 C23.78421875 16.22828125 23.10359375 15.67140625 22.40234375 15.09765625 C21.47421875 14.07671875 21.47421875 14.07671875 20.52734375 13.03515625 C12.15580417 5.40228193 2.30671863 6.36771082 -7.59765625 10.09765625 Z " fill="#030303" transform="translate(408.59765625,78.90234375)"/>
<path d="M0 0 C1.01340463 0.98641323 2.01537117 1.98486155 3 3 C3.99 3 4.98 3 6 3 C6 3.99 6 4.98 6 6 C6.66 6 7.32 6 8 6 C7.75 7.875 7.75 7.875 7 10 C5.25 11.2421875 5.25 11.2421875 3 12 C0.703125 11.390625 0.703125 11.390625 -1.75 10.25 C-10.99779457 6.27707229 -19.93313908 4.70600263 -30 6 C-33.37774036 7.872613 -35.47173178 9.06352452 -37.375 12.4375 C-38.3692703 16.51400824 -38.56983782 18.88622608 -36.625 22.6875 C-33.48845879 27.15103942 -29.46832958 29.33131953 -24.75 31.875 C-21.50056761 33.6283217 -18.28895323 35.40994663 -15.125 37.3125 C-12.23041581 38.87557546 -10.17619302 39.41491181 -7 40 C-4.56131474 41.31820825 -2.28458205 42.81101115 0.0234375 44.34375 C0.73757813 44.8078125 1.45171875 45.271875 2.1875 45.75 C3.19876953 46.42289063 3.19876953 46.42289063 4.23046875 47.109375 C4.81441406 47.40328125 5.39835937 47.6971875 6 48 C6.66 47.67 7.32 47.34 8 47 C8 47.99 8 48.98 8 50 C8.99 50.33 9.98 50.66 11 51 C12.3515625 52.671875 12.3515625 52.671875 13.625 54.75 C14.26308594 55.76320313 14.26308594 55.76320313 14.9140625 56.796875 C17.77935079 62.60990592 16.64756053 67.12847364 15.01953125 73.1796875 C13.38913902 77.68981466 10.85292206 79.85554814 6.875 82.3125 C5 83 5 83 2 83 C1.67 83.66 1.34 84.32 1 85 C-4.84585621 86.04390289 -10.70057043 86.12466514 -16.625 86.1875 C-17.34107422 86.20055176 -18.05714844 86.21360352 -18.79492188 86.22705078 C-25.46049242 86.2378017 -31.19440291 84.43420439 -37.375 82 C-38.22835937 81.67 -39.08171875 81.34 -39.9609375 81 C-42 80 -42 80 -43 78 C-43.66 78 -44.32 78 -45 78 C-45.625 76.125 -45.625 76.125 -46 74 C-44 72 -44 72 -41 71 C-39 72 -39 72 -36 74 C-21.80086266 78.98790209 -8.47878879 79.52967694 6 75 C6.33 73.35 6.66 71.7 7 70 C7.66 70 8.32 70 9 70 C8.57269378 62.69968326 8.57269378 62.69968326 6 56 C4.34836482 55.2969186 2.67745682 54.63903117 1 54 C-1.40703606 52.83025071 -3.80082463 51.64704813 -6.1875 50.4375 C-6.81591797 50.12103516 -7.44433594 49.80457031 -8.09179688 49.47851562 C-9.72867445 48.65394949 -11.36441252 47.82712219 -13 47 C-15.11785113 45.88214887 -15.11785113 45.88214887 -18 45 C-18 44.34 -18 43.68 -18 43 C-19.32 43 -20.64 43 -22 43 C-22 42.34 -22 41.68 -22 41 C-22.70125 40.896875 -23.4025 40.79375 -24.125 40.6875 C-27.41057396 39.90181927 -30.02288928 38.58356953 -33 37 C-33.721875 36.67 -34.44375 36.34 -35.1875 36 C-39.31858885 33.72077857 -42.04839401 29.58979106 -45 26 C-44.67 25.34 -44.34 24.68 -44 24 C-44.66 23.67 -45.32 23.34 -46 23 C-46 19.7 -46 16.4 -46 13 C-45.34 13 -44.68 13 -44 13 C-44.33 11.68 -44.66 10.36 -45 9 C-44.34 9 -43.68 9 -43 9 C-42.855625 7.9275 -42.71125 6.855 -42.5625 5.75 C-41.83577068 3.18568369 -41.31984689 2.22336415 -39.109375 0.6796875 C-27.3839993 -4.70441359 -12.20429337 -3.84489243 0 0 Z " fill="#030303" transform="translate(1050,82)"/>
<path d="M0 0 C0.66 0 1.32 0 2 0 C4.29924826 3.44887239 4.2324098 4.65318923 4.17944336 8.70556641 C4.16960922 9.87753571 4.15977509 11.049505 4.14964294 12.25698853 C4.12004234 14.16005264 4.12004234 14.16005264 4.08984375 16.1015625 C4.07464558 18.09770125 4.05946543 20.09384032 4.04531956 22.0899868 C4.0070914 27.01051839 3.94665813 31.93080834 3.88354492 36.85107422 C3.84891644 39.6093979 3.822602 42.36758643 3.80458069 45.12606812 C3.78680491 47.72061449 3.75633057 50.31511389 3.71141052 52.90933228 C3.66517327 61.14987677 4.20633442 68.57494706 9.25 75.375 C14.50454107 80.39069829 19.8237849 81.4457554 26.90234375 81.51171875 C27.98619102 81.53864555 27.98619102 81.53864555 29.0919342 81.56611633 C31.37373211 81.61980006 33.65532606 81.65397763 35.9375 81.6875 C37.49547085 81.72071036 39.05341491 81.75520341 40.61132812 81.79101562 C44.4074038 81.8755012 48.20342344 81.9425098 52 82 C51.83832336 81.16160583 51.67664673 80.32321167 51.5100708 79.45941162 C50.97163011 75.8075892 50.85859457 72.34029607 50.83886719 68.64941406 C50.83141983 67.58490273 50.83141983 67.58490273 50.82382202 66.49888611 C50.8093147 64.17112231 50.80242161 61.8434264 50.796875 59.515625 C50.79111899 57.89231363 50.78536132 56.26900227 50.77960205 54.64569092 C50.76912812 51.25321132 50.76326028 47.86075519 50.75976562 44.46826172 C50.75425443 40.11452052 50.73015603 35.76108789 50.70179367 31.407444 C50.68321569 28.06008983 50.67796454 24.71281123 50.67642975 21.36540985 C50.67339733 19.7593795 50.66534901 18.15335066 50.65224457 16.54737091 C50.63526678 14.30900518 50.63704215 12.07141105 50.64355469 9.83300781 C50.63808624 7.92155975 50.63808624 7.92155975 50.63250732 5.97149658 C50.75377991 4.99090271 50.87505249 4.01030884 51 3 C54 1 54 1 57 1 C58.56349613 4.12699226 58.19762264 7.47053232 58.23706055 10.90625 C58.25017273 11.72262939 58.26328491 12.53900879 58.27679443 13.38012695 C58.31867603 16.08670309 58.35313019 18.79330903 58.38671875 21.5 C58.41236404 23.37565292 58.43814808 25.25130395 58.46406555 27.12695312 C58.51707549 31.0611615 58.56599858 34.99539766 58.61254883 38.9296875 C58.67298214 43.98085412 58.74719091 49.03171555 58.82492352 54.0826416 C58.88240831 57.95662939 58.93075993 61.83069147 58.976511 65.70483398 C58.9999752 67.56767157 59.02674595 69.43047045 59.05682945 71.29321289 C59.09781934 73.89338096 59.12610228 76.49338612 59.15112305 79.09375 C59.17357841 80.25644409 59.17357841 80.25644409 59.19648743 81.44262695 C59.20755588 83.29620907 59.11334494 85.1498535 59 87 C56.46317481 89.53682519 54.82494799 89.25716784 51.36302185 89.30354309 C50.59224808 89.30263168 49.8214743 89.30172028 49.02734375 89.30078125 C48.23026505 89.30506638 47.43318634 89.3093515 46.61195374 89.31376648 C44.91977894 89.31951786 43.22757942 89.32000411 41.53540039 89.31567383 C38.97172431 89.31254181 36.40923404 89.3358634 33.84570312 89.36132812 C22.64664726 89.40497861 13.52238195 88.54663759 4 82 C3.3125 79.875 3.3125 79.875 3 78 C2.3709375 77.72414063 1.741875 77.44828125 1.09375 77.1640625 C-1.63063557 75.64938545 -1.92090837 74.43700773 -2.8125 71.5 C-3.06644531 70.7059375 -3.32039062 69.911875 -3.58203125 69.09375 C-4 67 -4 67 -3 65 C-3.31950963 63.66328669 -3.65547497 62.3304854 -4 61 C-4.09011581 59.24983452 -4.12788 57.49662394 -4.12939453 55.74414062 C-4.13254669 54.69625366 -4.13569885 53.6483667 -4.13894653 52.56872559 C-4.1369223 51.44260864 -4.13489807 50.3164917 -4.1328125 49.15625 C-4.13376923 47.9950061 -4.13472595 46.83376221 -4.13571167 45.6373291 C-4.13639198 43.18286078 -4.13454809 40.72839065 -4.13037109 38.27392578 C-4.12502079 34.51460737 -4.13032117 30.75540844 -4.13671875 26.99609375 C-4.13605794 24.6119789 -4.13477672 22.22786413 -4.1328125 19.84375 C-4.13584885 18.15457458 -4.13584885 18.15457458 -4.13894653 16.43127441 C-4.13579437 15.38338745 -4.13264221 14.33550049 -4.12939453 13.25585938 C-4.12859894 12.33526733 -4.12780334 11.41467529 -4.12698364 10.46618652 C-4.00864051 8.16780985 -3.647851 6.20138314 -3 4 C-3.66 3.67 -4.32 3.34 -5 3 C-3.35 2.34 -1.7 1.68 0 1 C0 0.67 0 0.34 0 0 Z " fill="#030303" transform="translate(197,79)"/>
<path d="M0 0 C3.875 0.875 3.875 0.875 5 2 C4.9618472 3.93992302 4.8441813 5.87853829 4.6875 7.8125 C4.60886719 8.87082031 4.53023437 9.92914063 4.44921875 11.01953125 C4.01969855 13.8693044 3.39777306 15.52740505 2 18 C-0.39289034 23.58029505 -2.4013274 29.13820048 -4 35 C-4.4939916 36.46037954 -4.99440884 37.91859563 -5.5 39.375 C-7.01772842 43.8511432 -8.06960493 48.36991628 -9 53 C-9.66 53 -10.32 53 -11 53 C-11.185625 54.299375 -11.185625 54.299375 -11.375 55.625 C-12.61317857 62.3111643 -15.35655831 68.49409194 -17.87890625 74.78125 C-18.95567123 77.87272855 -19.47702728 80.77958905 -20 84 C-21.5625 86.375 -21.5625 86.375 -23 88 C-27.75 87.25 -27.75 87.25 -30 85 C-30.165 83.824375 -30.33 82.64875 -30.5 81.4375 C-30.665 80.303125 -30.83 79.16875 -31 78 C-31.66 77.67 -32.32 77.34 -33 77 C-32.67 76.34 -32.34 75.68 -32 75 C-32.66 74.67 -33.32 74.34 -34 74 C-34.7925427 71.92608353 -35.4863815 69.81386307 -36.125 67.6875 C-36.47820313 66.53636719 -36.83140625 65.38523437 -37.1953125 64.19921875 C-38 61 -38 61 -38 57 C-38.66 56.67 -39.32 56.34 -40 56 C-42.1272346 50.8185249 -43.44383429 45.62190095 -43 40 C-43.99 39.67 -44.98 39.34 -46 39 C-46.103125 38.360625 -46.20625 37.72125 -46.3125 37.0625 C-47.07405332 33.67012614 -48.14364641 30.4655801 -49.28125 27.18359375 C-50.60114333 23.17370043 -51.33701048 19.16736272 -52 15 C-52.66 15 -53.32 15 -54 15 C-54.185625 13.88625 -54.185625 13.88625 -54.375 12.75 C-54.86889456 10.02462728 -54.86889456 10.02462728 -56.125 7.875 C-57 6 -57 6 -56 3 C-53.625 1.6875 -53.625 1.6875 -51 1 C-47.46424733 3.35716845 -47.4398291 4.08500898 -46.5 8.0625 C-45.02036863 13.97331908 -43.17582819 19.67654041 -41.14453125 25.41796875 C-40.86996094 26.20816406 -40.59539063 26.99835938 -40.3125 27.8125 C-40.06113281 28.52019531 -39.80976562 29.22789063 -39.55078125 29.95703125 C-39 32 -39 32 -39 36 C-38.34 36.33 -37.68 36.66 -37 37 C-36.23803711 38.73413086 -36.23803711 38.73413086 -35.52734375 40.96484375 C-35.26759766 41.76470703 -35.00785156 42.56457031 -34.74023438 43.38867188 C-34.47533203 44.22978516 -34.21042969 45.07089844 -33.9375 45.9375 C-33.40611459 47.59282289 -32.87361422 49.2477884 -32.33984375 50.90234375 C-32.10644287 51.63960693 -31.87304199 52.37687012 -31.63256836 53.13647461 C-31.02689197 55.05953452 -31.02689197 55.05953452 -30 57 C-30.33 57.66 -30.66 58.32 -31 59 C-30.34 59 -29.68 59 -29 59 C-28.896875 59.66 -28.79375 60.32 -28.6875 61 C-27.80786436 64.83841009 -26.43030104 68.33096691 -25 72 C-25 71.01 -25 70.02 -25 69 C-24.34 69 -23.68 69 -23 69 C-22.731875 67.72125 -22.46375 66.4425 -22.1875 65.125 C-19.84032329 54.63761468 -19.84032329 54.63761468 -18 50 C-17.34 49.67 -16.68 49.34 -16 49 C-15.64179815 47.00430399 -15.31622777 45.00277585 -15 43 C-13.36626367 36.7700188 -11.20675525 30.74685469 -8.96484375 24.71484375 C-8.06455021 22.18162913 -7.29483077 19.64841373 -6.5625 17.0625 C-4.85715142 11.17904739 -2.4390669 5.61081793 0 0 Z " fill="#020202" transform="translate(804,79)"/>
<path d="M0 0 C1.65 0 3.3 0 5 0 C6.66447831 5.06542793 7.27579015 9.55639043 7.1953125 14.90234375 C7.1924826 15.6249086 7.18965271 16.34747345 7.18673706 17.0919342 C7.17564386 19.37396616 7.15056088 21.65558897 7.125 23.9375 C7.11495611 25.49543699 7.10583274 27.05338021 7.09765625 28.61132812 C7.07574033 32.40770699 7.04128738 36.2037844 7 40 C12.72467688 40.04476776 18.3531955 39.91148141 24.0625 39.5 C25.37347656 39.4071875 26.68445313 39.314375 28.03515625 39.21875 C29.50275391 39.11046875 29.50275391 39.11046875 31 39 C33 43.75 33 43.75 33 46 C25.491031 51.00597933 15.02465758 48 6 48 C6 74.07 6 100.14 6 127 C4.02 127 2.04 127 0 127 C-1.00770792 122.8294437 -1.12082358 118.92344435 -1.11352539 114.6394043 C-1.11367142 113.91690994 -1.11381744 113.19441559 -1.1139679 112.45002747 C-1.11327422 110.07472678 -1.10550745 107.69950565 -1.09765625 105.32421875 C-1.09579013 103.67226708 -1.09436714 102.02031485 -1.09336853 100.36836243 C-1.08955861 96.02992208 -1.07974139 91.69151545 -1.06866455 87.35308838 C-1.0584176 82.92224585 -1.05386388 78.49139785 -1.04882812 74.06054688 C-1.03811771 65.37368248 -1.02105966 56.68684544 -1 48 C-2.258125 48.0309375 -3.51625 48.061875 -4.8125 48.09375 C-8.67649733 48.18876633 -10.85419033 47.35935725 -14 45 C-13.67 43.68 -13.34 42.36 -13 41 C-9.04 41 -5.08 41 -1 41 C-1.495 39.515 -1.495 39.515 -2 38 C-1.7444703 36.40506879 -1.48796667 34.81028753 -1.2265625 33.21630859 C-0.73771149 28.43420791 -1.22838707 23.6004003 -1.5 18.8125 C-1.62004073 16.67347637 -1.73484324 14.53415066 -1.84375 12.39453125 C-1.89724609 11.45456299 -1.95074219 10.51459473 -2.00585938 9.54614258 C-1.99778213 6.03624415 -1.1047294 3.31418819 0 0 Z " fill="#020202" transform="translate(870,39)"/>
<path d="M0 0 C2.375 0.25 2.375 0.25 5 1 C7.78563374 4.65738423 7.15953498 8.90782374 6.9765625 13.265625 C6.95153656 14.05902283 6.92651062 14.85242065 6.90072632 15.66986084 C6.81873624 18.19702217 6.72206691 20.72337726 6.625 23.25 C6.5667389 24.9661132 6.50943608 26.68225921 6.453125 28.3984375 C6.31318897 32.59941972 6.16008827 36.79973941 6 41 C7.32 41 8.64 41 10 41 C10.33 40.34 10.66 39.68 11 39 C16.61 39 22.22 39 28 39 C28 39.66 28 40.32 28 41 C29.2065625 41.185625 29.2065625 41.185625 30.4375 41.375 C31.283125 41.58125 32.12875 41.7875 33 42 C33.33 42.66 33.66 43.32 34 44 C32 47 32 47 30.13891602 47.68359375 C27.97476557 48.00373289 25.96399346 48.0980272 23.77734375 48.0625 C22.99166016 48.05476563 22.20597656 48.04703125 21.39648438 48.0390625 C20.58501953 48.02617188 19.77355469 48.01328125 18.9375 48 C17.32168222 47.97445347 15.70578491 47.95343368 14.08984375 47.9375 C13.37691162 47.92589844 12.66397949 47.91429687 11.92944336 47.90234375 C9.7790898 47.92482089 9.7790898 47.92482089 7 49 C7 74.41 7 99.82 7 126 C5.02 126.495 5.02 126.495 3 127 C2.67 127.66 2.34 128.32 2 129 C-1.04250263 124.80144426 -1.36300753 121.80582062 -1.32470703 116.67114258 C-1.32353882 115.95186081 -1.32237061 115.23257904 -1.32116699 114.49150085 C-1.31400709 112.125546 -1.28582382 109.760323 -1.2578125 107.39453125 C-1.24967294 105.74737695 -1.24301091 104.10021475 -1.23776245 102.45304871 C-1.22067081 98.12510076 -1.18642726 93.79746771 -1.14770508 89.46966553 C-1.08842432 82.53206339 -1.05468866 75.59429937 -1.02193832 68.65653038 C-1.00795197 66.23121657 -0.98636778 63.80605958 -0.96365356 61.3808136 C-0.95363368 59.9007681 -0.94376803 58.42072155 -0.93408203 56.94067383 C-0.91717819 54.99805412 -0.91717819 54.99805412 -0.89993286 53.01618958 C-0.78742023 50.07740131 -0.78742023 50.07740131 -2 48 C-2.69867188 48.02320313 -3.39734375 48.04640625 -4.1171875 48.0703125 C-5.02726563 48.08835938 -5.93734375 48.10640625 -6.875 48.125 C-7.77992188 48.14820313 -8.68484375 48.17140625 -9.6171875 48.1953125 C-12 48 -12 48 -14 46 C-14.125 42.875 -14.125 42.875 -14 40 C-9.30789434 39.15542098 -5.66502024 39.10796355 -1 40 C-1.00523682 38.89487061 -1.01047363 37.78974121 -1.01586914 36.65112305 C-1.03396215 32.55298675 -1.04544778 28.45485398 -1.05493164 24.35668945 C-1.059962 22.58259487 -1.06678699 20.80850444 -1.07543945 19.03442383 C-1.08756174 16.48517839 -1.09324126 13.93598774 -1.09765625 11.38671875 C-1.10281754 10.59287277 -1.10797882 9.79902679 -1.11329651 8.98112488 C-1.11362877 5.72343714 -1.03772826 3.11318479 0 0 Z " fill="#020202" transform="translate(140,39)"/>
<path d="M0 0 C0.82260315 -0.00095673 1.6452063 -0.00191345 2.49273682 -0.00289917 C4.23441647 -0.00357966 5.97609866 -0.0017345 7.71777344 0.00244141 C10.36659551 0.00776421 13.0152459 0.00250616 15.6640625 -0.00390625 C17.35937537 -0.00324491 19.05468814 -0.0019626 20.75 0 C21.53566345 -0.00202423 22.3213269 -0.00404846 23.13079834 -0.00613403 C27.73542948 0.01320381 32.0974549 0.37411063 36.640625 1.1328125 C37.54851985 5.04261776 37.83529708 8.74653855 37.890625 12.7578125 C37.91640625 13.88445312 37.9421875 15.01109375 37.96875 16.171875 C37.640625 19.1328125 37.640625 19.1328125 36.125 21.03125 C35.63515625 21.39476563 35.1453125 21.75828125 34.640625 22.1328125 C30.765625 20.2578125 30.765625 20.2578125 29.640625 19.1328125 C29.640625 15.8328125 29.640625 12.5328125 29.640625 9.1328125 C19.080625 9.1328125 8.520625 9.1328125 -2.359375 9.1328125 C-3.85059278 12.11524805 -3.48938972 15.15897002 -3.47290039 18.42822266 C-3.47304642 19.17953964 -3.47319244 19.93085663 -3.4733429 20.7049408 C-3.47264496 23.193948 -3.46485814 25.68288083 -3.45703125 28.171875 C-3.45516665 29.89537515 -3.45374294 31.61887584 -3.45274353 33.34237671 C-3.44892169 37.88307147 -3.43909422 42.42373435 -3.42803955 46.9644165 C-3.41781829 51.59606495 -3.41324437 56.22771853 -3.40820312 60.859375 C-3.39747167 69.95053486 -3.38039922 79.04167103 -3.359375 88.1328125 C-6.36969244 89.06704895 -7.22587768 89.17731161 -10.359375 88.1328125 C-10.49019708 77.67535372 -10.62061712 67.21789001 -10.75052643 56.76041985 C-10.8108635 51.90440502 -10.87133812 47.04839198 -10.93212891 42.19238281 C-10.99080948 37.50453206 -11.04912637 32.81667691 -11.10719299 28.12881851 C-11.12939041 26.34189824 -11.15171803 24.55497957 -11.17417908 22.76806259 C-11.20565863 20.26188313 -11.23667183 17.7556983 -11.26757812 15.24951172 C-11.27692886 14.51367355 -11.2862796 13.77783539 -11.2959137 13.0196991 C-11.3442493 9.05713411 -11.36849605 5.09566515 -11.359375 1.1328125 C-7.5491803 -0.1372524 -3.96925804 -0.01012232 0 0 Z " fill="#030303" transform="translate(610.359375,77.8671875)"/>
<path d="M0 0 C1.65 0.33 3.3 0.66 5 1 C5.80116542 5.93404916 6.15291921 10.72154862 6.16113281 15.72363281 C6.16609772 16.46110748 6.17106262 17.19858215 6.17617798 17.95840454 C6.19066528 20.37332113 6.19757492 22.78817229 6.203125 25.203125 C6.20888259 26.88987223 6.21464024 28.57661947 6.22039795 30.2633667 C6.23086612 33.786909 6.23673773 37.31042874 6.24023438 40.83398438 C6.24574486 45.35238081 6.26984431 49.87047983 6.29820633 54.3887825 C6.31679853 57.86656585 6.32203622 61.34427655 6.32357025 64.82210541 C6.32659935 66.48871253 6.33463654 68.15531829 6.34775543 69.82187653 C6.364763 72.14613437 6.36295038 74.46965094 6.35644531 76.79394531 C6.37026749 77.82725479 6.37026749 77.82725479 6.3843689 78.88143921 C6.35916369 81.74849672 6.28942093 83.58851766 4.61444092 85.96990967 C3 87 3 87 0.8125 86.6875 C0.214375 86.460625 -0.38375 86.23375 -1 86 C-1 85.34 -1 84.68 -1 84 C-1.66 83.67 -2.32 83.34 -3 83 C-2.34 83 -1.68 83 -1 83 C-1.0169693 82.06341049 -1.0339386 81.12682098 -1.05142212 80.16184998 C-1.21024203 71.31979014 -1.35791416 62.47760442 -1.49477577 53.63517666 C-1.56548711 49.08959415 -1.64007491 44.54414524 -1.72363281 39.9987793 C-1.80418073 35.60929056 -1.87440079 31.2197452 -1.93757248 26.82997322 C-1.96342355 25.15825412 -1.99294653 23.48658749 -2.02626419 21.81500053 C-2.07242389 19.46711563 -2.10532374 17.1193806 -2.13525391 14.77124023 C-2.1517952 14.08575104 -2.16833649 13.40026184 -2.18537903 12.69400024 C-2.22587889 8.05336449 -1.43398391 4.35930489 0 0 Z " fill="#020202" transform="translate(358,80)"/>
<path d="M0 0 C3 2 3 2 3.67941284 3.65109253 C4.13136346 6.96248587 4.13887789 10.24763098 4.12939453 13.58251953 C4.13114685 14.34066956 4.13289917 15.09881958 4.13470459 15.87994385 C4.13909887 18.38092348 4.13619423 20.88183217 4.1328125 23.3828125 C4.13348609 25.12108372 4.13445659 26.85935484 4.13571167 28.59762573 C4.13718524 32.23745624 4.13504449 35.87726219 4.13037109 39.51708984 C4.12466552 44.18913788 4.1279602 48.86112857 4.13394356 53.53317451 C4.13755112 57.12072179 4.13640983 60.70825539 4.13381577 64.29580307 C4.13314748 66.01904177 4.13397151 67.74228169 4.13629532 69.46551895 C4.13882594 71.86913614 4.13497582 74.27265937 4.12939453 76.67626953 C4.13141876 77.3921524 4.13344299 78.10803528 4.13552856 78.84561157 C4.11426631 83.77146737 4.11426631 83.77146737 3 86 C0.67843403 86.40729228 -1.6568787 86.74438677 -4 87 C-3.99777939 86.00663635 -3.99555878 85.01327271 -3.99327087 83.98980713 C-3.97300551 74.63158707 -3.95801146 65.27337145 -3.94818783 55.91513443 C-3.94296765 51.10389543 -3.93588565 46.29267413 -3.92456055 41.48144531 C-3.91370101 36.83898494 -3.90771664 32.19654161 -3.90512276 27.55406952 C-3.90327405 25.78224164 -3.89966405 24.01041469 -3.89426994 22.23859406 C-3.88701886 19.758326 -3.88601078 17.2781285 -3.88647461 14.79785156 C-3.88287933 14.06417358 -3.87928406 13.33049561 -3.87557983 12.57458496 C-3.88116873 9.81551168 -3.91608168 7.31363268 -4.63209534 4.63763428 C-4.75350388 4.09721497 -4.87491241 3.55679565 -5 3 C-3 1 -3 1 0 0 Z " fill="#020202" transform="translate(833,80)"/>
<path d="M0 0 C0.33 0.66 0.66 1.32 1 2 C3.02463255 2.65213292 3.02463255 2.65213292 5 3 C6.23076923 8.41538462 6.23076923 8.41538462 5.0625 11.375 C4.711875 11.91125 4.36125 12.4475 4 13 C2.35 13 0.7 13 -1 13 C-2.66281865 9.47873697 -3.15147474 7.71030749 -2 4 C-2.33 3.34 -2.66 2.68 -3 2 C-2.01 1.34 -1.02 0.68 0 0 Z " fill="#020202" transform="translate(831,38)"/>
<path d="M0 0 C1.98 0 3.96 0 6 0 C7.37432457 3.81756824 6.67975039 7.07255329 6 11 C2.71303767 11.79953138 1.28976808 12.09658936 -2 11 C-2.28571429 3.57142857 -2.28571429 3.57142857 0 0 Z " fill="#020202" transform="translate(357,39)"/>
<path d="M0 0 C4 1 4 1 4 1 Z " fill="#000000" transform="translate(861,78)"/>
<path d="" fill="#000000" transform="translate(0,0)"/>
<path d="M0 0 C3 1 3 1 3 1 Z " fill="#000000" transform="translate(1038,120)"/>
<path d="" fill="#000000" transform="translate(0,0)"/>
<path d="M0 0 C2 1 2 1 2 1 Z " fill="#000000" transform="translate(1012,154)"/>
<path d="M0 0 C2 1 2 1 2 1 Z " fill="#000000" transform="translate(1004,154)"/>
<path d="" fill="#000000" transform="translate(0,0)"/>
<path d="" fill="#000000" transform="translate(0,0)"/>
<path d="" fill="#000000" transform="translate(0,0)"/>
<path d="" fill="#000000" transform="translate(0,0)"/>
<path d="" fill="#000000" transform="translate(0,0)"/>
<path d="M0 0 C2 1 2 1 2 1 Z " fill="#000000" transform="translate(70,109)"/>
<path d="" fill="#000000" transform="translate(0,0)"/>
<path d="" fill="#000000" transform="translate(0,0)"/>
<path d="M0 0 C2 1 2 1 2 1 Z " fill="#000000" transform="translate(287,93)"/>
<path d="M0 0 C2 1 2 1 2 1 Z " fill="#000000" transform="translate(434,86)"/>
<path d="M0 0 C2 1 2 1 2 1 Z " fill="#000000" transform="translate(1053,84)"/>
<path d="" fill="#000000" transform="translate(0,0)"/>
<path d="M0 0 C2 1 2 1 2 1 Z " fill="#000000" transform="translate(748,80)"/>
<path d="M0 0 C2 1 2 1 2 1 Z " fill="#000000" transform="translate(750,79)"/>
<path d="M0 0 C2 1 2 1 2 1 Z " fill="#000000" transform="translate(866,78)"/>
<path d="" fill="#000000" transform="translate(0,0)"/>
<path d="" fill="#000000" transform="translate(0,0)"/>
<path d="M0 0 C2 1 2 1 2 1 Z " fill="#000000" transform="translate(868,40)"/>
<path d="" fill="#000000" transform="translate(0,0)"/>
<path d="" fill="#000000" transform="translate(0,0)"/>
<path d="" fill="#000000" transform="translate(0,0)"/>
<path d="" fill="#000000" transform="translate(0,0)"/>
<path d="" fill="#000000" transform="translate(0,0)"/>
<path d="" fill="#000000" transform="translate(0,0)"/>
<path d="" fill="#000000" transform="translate(0,0)"/>
<path d="" fill="#000000" transform="translate(0,0)"/>
<path d="" fill="#000000" transform="translate(0,0)"/>
<path d="" fill="#000000" transform="translate(0,0)"/>
<path d="" fill="#000000" transform="translate(0,0)"/>
<path d="" fill="#000000" transform="translate(0,0)"/>
<path d="" fill="#000000" transform="translate(0,0)"/>
<path d="" fill="#000000" transform="translate(0,0)"/>
<path d="" fill="#000000" transform="translate(0,0)"/>
<path d="" fill="#000000" transform="translate(0,0)"/>
<path d="" fill="#000000" transform="translate(0,0)"/>
<path d="" fill="#000000" transform="translate(0,0)"/>
<path d="" fill="#000000" transform="translate(0,0)"/>
<path d="" fill="#000000" transform="translate(0,0)"/>
<path d="" fill="#000000" transform="translate(0,0)"/>
<path d="" fill="#000000" transform="translate(0,0)"/>
<path d="" fill="#000000" transform="translate(0,0)"/>
<path d="" fill="#000000" transform="translate(0,0)"/>
<path d="" fill="#000000" transform="translate(0,0)"/>
<path d="" fill="#000000" transform="translate(0,0)"/>
<path d="" fill="#000000" transform="translate(0,0)"/>
<path d="" fill="#000000" transform="translate(0,0)"/>
<path d="" fill="#000000" transform="translate(0,0)"/>
<path d="" fill="#000000" transform="translate(0,0)"/>
<path d="" fill="#000000" transform="translate(0,0)"/>
<path d="" fill="#000000" transform="translate(0,0)"/>
<path d="" fill="#000000" transform="translate(0,0)"/>
<path d="" fill="#000000" transform="translate(0,0)"/>
<path d="" fill="#000000" transform="translate(0,0)"/>
<path d="" fill="#000000" transform="translate(0,0)"/>
<path d="" fill="#000000" transform="translate(0,0)"/>
<path d="" fill="#000000" transform="translate(0,0)"/>
<path d="" fill="#000000" transform="translate(0,0)"/>
<path d="" fill="#000000" transform="translate(0,0)"/>
<path d="" fill="#000000" transform="translate(0,0)"/>
<path d="" fill="#000000" transform="translate(0,0)"/>
<path d="" fill="#000000" transform="translate(0,0)"/>
<path d="" fill="#000000" transform="translate(0,0)"/>
<path d="" fill="#000000" transform="translate(0,0)"/>
<path d="" fill="#000000" transform="translate(0,0)"/>
<path d="" fill="#000000" transform="translate(0,0)"/>
<path d="" fill="#000000" transform="translate(0,0)"/>
<path d="" fill="#000000" transform="translate(0,0)"/>
<path d="" fill="#000000" transform="translate(0,0)"/>
<path d="" fill="#000000" transform="translate(0,0)"/>
<path d="" fill="#000000" transform="translate(0,0)"/>
<path d="" fill="#000000" transform="translate(0,0)"/>
<path d="" fill="#000000" transform="translate(0,0)"/>
<path d="" fill="#000000" transform="translate(0,0)"/>
<path d="" fill="#000000" transform="translate(0,0)"/>
<path d="" fill="#000000" transform="translate(0,0)"/>
<path d="" fill="#000000" transform="translate(0,0)"/>
<path d="" fill="#000000" transform="translate(0,0)"/>
<path d="" fill="#000000" transform="translate(0,0)"/>
<path d="" fill="#000000" transform="translate(0,0)"/>
<path d="" fill="#000000" transform="translate(0,0)"/>
<path d="" fill="#000000" transform="translate(0,0)"/>
<path d="" fill="#000000" transform="translate(0,0)"/>
<path d="" fill="#000000" transform="translate(0,0)"/>
<path d="" fill="#000000" transform="translate(0,0)"/>
<path d="" fill="#000000" transform="translate(0,0)"/>
<path d="" fill="#000000" transform="translate(0,0)"/>
<path d="" fill="#000000" transform="translate(0,0)"/>
<path d="" fill="#000000" transform="translate(0,0)"/>
<path d="" fill="#000000" transform="translate(0,0)"/>
<path d="" fill="#000000" transform="translate(0,0)"/>
<path d="" fill="#000000" transform="translate(0,0)"/>
<path d="" fill="#000000" transform="translate(0,0)"/>
<path d="" fill="#000000" transform="translate(0,0)"/>
<path d="" fill="#000000" transform="translate(0,0)"/>
<path d="" fill="#000000" transform="translate(0,0)"/>
<path d="" fill="#000000" transform="translate(0,0)"/>
<path d="" fill="#000000" transform="translate(0,0)"/>
<path d="" fill="#000000" transform="translate(0,0)"/>
<path d="" fill="#000000" transform="translate(0,0)"/>
<path d="" fill="#000000" transform="translate(0,0)"/>
<path d="" fill="#000000" transform="translate(0,0)"/>
<path d="" fill="#000000" transform="translate(0,0)"/>
<path d="" fill="#000000" transform="translate(0,0)"/>
<path d="" fill="#000000" transform="translate(0,0)"/>
<path d="" fill="#000000" transform="translate(0,0)"/>
<path d="" fill="#000000" transform="translate(0,0)"/>
<path d="" fill="#000000" transform="translate(0,0)"/>
<path d="" fill="#000000" transform="translate(0,0)"/>
<path d="" fill="#000000" transform="translate(0,0)"/>
<path d="" fill="#000000" transform="translate(0,0)"/>
<path d="" fill="#000000" transform="translate(0,0)"/>
<path d="" fill="#000000" transform="translate(0,0)"/>
<path d="" fill="#000000" transform="translate(0,0)"/>
<path d="" fill="#000000" transform="translate(0,0)"/>
<path d="" fill="#000000" transform="translate(0,0)"/>
<path d="" fill="#000000" transform="translate(0,0)"/>
<path d="" fill="#000000" transform="translate(0,0)"/>
<path d="" fill="#000000" transform="translate(0,0)"/>
<path d="" fill="#000000" transform="translate(0,0)"/>
<path d="" fill="#000000" transform="translate(0,0)"/>
<path d="" fill="#000000" transform="translate(0,0)"/>
<path d="" fill="#000000" transform="translate(0,0)"/>
<path d="" fill="#000000" transform="translate(0,0)"/>
<path d="" fill="#000000" transform="translate(0,0)"/>
<path d="" fill="#000000" transform="translate(0,0)"/>
<path d="" fill="#000000" transform="translate(0,0)"/>
<path d="" fill="#000000" transform="translate(0,0)"/>
<path d="" fill="#000000" transform="translate(0,0)"/>
<path d="" fill="#000000" transform="translate(0,0)"/>
<path d="" fill="#000000" transform="translate(0,0)"/>
<path d="" fill="#000000" transform="translate(0,0)"/>
<path d="" fill="#000000" transform="translate(0,0)"/>
<path d="" fill="#000000" transform="translate(0,0)"/>
<path d="" fill="#000000" transform="translate(0,0)"/>
<path d="" fill="#000000" transform="translate(0,0)"/>
<path d="" fill="#000000" transform="translate(0,0)"/>
<path d="" fill="#000000" transform="translate(0,0)"/>
<path d="" fill="#000000" transform="translate(0,0)"/>
<path d="" fill="#000000" transform="translate(0,0)"/>
<path d="" fill="#000000" transform="translate(0,0)"/>
<path d="" fill="#000000" transform="translate(0,0)"/>
<path d="" fill="#000000" transform="translate(0,0)"/>
<path d="" fill="#000000" transform="translate(0,0)"/>
<path d="" fill="#000000" transform="translate(0,0)"/>
<path d="" fill="#000000" transform="translate(0,0)"/>
<path d="" fill="#000000" transform="translate(0,0)"/>
<path d="" fill="#000000" transform="translate(0,0)"/>
<path d="" fill="#000000" transform="translate(0,0)"/>
<path d="" fill="#000000" transform="translate(0,0)"/>
<path d="" fill="#000000" transform="translate(0,0)"/>
<path d="" fill="#000000" transform="translate(0,0)"/>
<path d="" fill="#000000" transform="translate(0,0)"/>
<path d="" fill="#000000" transform="translate(0,0)"/>
<path d="" fill="#000000" transform="translate(0,0)"/>
<path d="" fill="#000000" transform="translate(0,0)"/>
<path d="" fill="#000000" transform="translate(0,0)"/>
<path d="" fill="#000000" transform="translate(0,0)"/>
<path d="" fill="#000000" transform="translate(0,0)"/>
<path d="" fill="#000000" transform="translate(0,0)"/>
<path d="" fill="#000000" transform="translate(0,0)"/>
<path d="" fill="#000000" transform="translate(0,0)"/>
<path d="" fill="#000000" transform="translate(0,0)"/>
<path d="" fill="#000000" transform="translate(0,0)"/>
<path d="" fill="#000000" transform="translate(0,0)"/>
<path d="" fill="#000000" transform="translate(0,0)"/>
<path d="" fill="#000000" transform="translate(0,0)"/>
<path d="" fill="#000000" transform="translate(0,0)"/>
<path d="" fill="#000000" transform="translate(0,0)"/>
<path d="" fill="#000000" transform="translate(0,0)"/>
<path d="" fill="#000000" transform="translate(0,0)"/>
<path d="" fill="#000000" transform="translate(0,0)"/>
<path d="" fill="#000000" transform="translate(0,0)"/>
<path d="" fill="#000000" transform="translate(0,0)"/>
<path d="" fill="#000000" transform="translate(0,0)"/>
<path d="" fill="#000000" transform="translate(0,0)"/>
<path d="" fill="#000000" transform="translate(0,0)"/>
<path d="" fill="#000000" transform="translate(0,0)"/>
<path d="" fill="#000000" transform="translate(0,0)"/>
<path d="" fill="#000000" transform="translate(0,0)"/>
<path d="" fill="#000000" transform="translate(0,0)"/>
<path d="" fill="#000000" transform="translate(0,0)"/>
<path d="" fill="#000000" transform="translate(0,0)"/>
<path d="" fill="#000000" transform="translate(0,0)"/>
<path d="" fill="#000000" transform="translate(0,0)"/>
<path d="" fill="#000000" transform="translate(0,0)"/>
<path d="" fill="#000000" transform="translate(0,0)"/>
<path d="" fill="#000000" transform="translate(0,0)"/>
<path d="" fill="#000000" transform="translate(0,0)"/>
<path d="" fill="#000000" transform="translate(0,0)"/>
<path d="" fill="#000000" transform="translate(0,0)"/>
<path d="" fill="#000000" transform="translate(0,0)"/>
<path d="" fill="#000000" transform="translate(0,0)"/>
<path d="" fill="#000000" transform="translate(0,0)"/>
</svg>
